<?xml version="1.0" encoding="utf-8"?>
<svg xmlns="http://www.w3.org/2000/svg" viewBox="41.278 406.391 185.344 44.658" xmlns:bx="https://boxy-svg.com">
  <defs>
    <bx:export>
      <bx:file format="svg" path="logo.svg" excluded="true"/>
    </bx:export>
    <bx:grid x="1.921" y="2.882" width="100" height="100"/>
  </defs>
  <path d="M 64.313 418.41 C 64.275 418.358 64.238 418.305 64.189 418.236 C 64.174 418.212 64.167 418.208 64.157 418.209 C 64.139 418.182 64.12 418.155 64.087 418.109 C 63.921 417.91 63.769 417.73 63.617 417.55 C 63.617 417.55 63.606 417.55 63.609 417.537 C 63.457 417.326 63.304 417.128 63.146 416.934 C 63.115 416.896 63.066 416.851 63.023 416.85 C 62.861 416.845 62.697 416.821 62.538 416.897 C 61.605 417.344 60.744 417.897 59.981 418.599 C 58.732 419.746 57.83 421.119 57.289 422.727 C 57.13 423.201 56.986 423.68 56.923 424.179 C 56.918 424.197 56.913 424.214 56.903 424.255 C 56.894 424.312 56.891 424.345 56.889 424.377 C 56.882 424.407 56.875 424.436 56.861 424.493 C 56.849 424.592 56.844 424.663 56.839 424.734 C 56.835 424.751 56.832 424.769 56.822 424.813 C 56.801 424.989 56.786 425.139 56.77 425.288 C 56.768 425.765 56.765 426.242 56.763 426.75 C 56.773 426.838 56.782 426.894 56.792 426.951 C 56.795 427.007 56.798 427.063 56.804 427.146 C 56.815 427.204 56.824 427.236 56.833 427.267 C 56.837 427.324 56.841 427.38 56.848 427.461 C 56.858 427.505 56.865 427.525 56.872 427.545 C 56.874 427.588 56.877 427.631 56.882 427.699 C 56.893 427.744 56.901 427.764 56.909 427.783 C 56.923 427.879 56.936 427.975 56.953 428.098 C 56.969 428.156 56.98 428.187 56.992 428.218 C 57.072 428.529 57.131 428.847 57.237 429.15 C 57.382 429.565 57.562 429.968 57.737 430.4 C 57.769 430.459 57.791 430.495 57.814 430.531 C 57.831 430.574 57.848 430.616 57.873 430.676 C 57.883 430.703 57.89 430.709 57.9 430.71 C 57.9 430.71 57.899 430.713 57.902 430.726 C 57.928 430.774 57.951 430.808 57.975 430.842 C 58.202 431.205 58.429 431.567 58.665 431.944 C 58.675 431.959 58.682 431.967 58.682 431.967 L 58.693 431.966 C 58.693 431.966 58.694 431.976 58.702 431.99 C 58.781 432.092 58.853 432.18 58.925 432.269 C 58.958 432.315 58.992 432.362 59.039 432.426 C 59.276 432.686 59.495 432.932 59.724 433.167 C 59.846 433.293 59.987 433.402 60.12 433.518 C 60.129 433.53 60.139 433.543 60.164 433.57 C 60.211 433.606 60.243 433.627 60.275 433.647 C 60.284 433.658 60.292 433.668 60.317 433.693 C 60.525 433.853 60.718 433.997 60.911 434.142 C 60.976 434.188 61.04 434.235 61.123 434.295 C 61.17 434.326 61.198 434.343 61.226 434.36 C 61.301 434.455 61.237 434.551 61.222 434.671 C 61.215 434.715 61.214 434.736 61.214 434.757 C 61.179 434.918 61.144 435.079 61.104 435.264 C 61.097 435.309 61.096 435.33 61.096 435.351 C 61.047 435.577 60.998 435.804 60.942 436.055 C 60.934 436.101 60.931 436.122 60.929 436.143 C 60.923 436.16 60.918 436.178 60.906 436.217 C 60.898 436.26 60.896 436.281 60.894 436.302 C 60.872 436.396 60.85 436.49 60.82 436.613 C 60.796 436.707 60.789 436.777 60.763 436.84 C 60.75 436.871 60.703 436.888 60.671 436.911 C 60.602 436.867 60.532 436.823 60.441 436.766 C 60.374 436.73 60.327 436.707 60.281 436.683 C 60.217 436.639 60.152 436.594 60.068 436.536 C 59.967 436.474 59.884 436.426 59.802 436.377 C 59.771 436.353 59.74 436.329 59.691 436.291 C 59.637 436.257 59.601 436.237 59.565 436.217 C 59.481 436.154 59.398 436.092 59.295 436.014 C 59.2 435.942 59.123 435.885 59.047 435.828 C 59.033 435.814 59.018 435.799 58.988 435.771 C 58.945 435.74 58.917 435.723 58.89 435.706 C 58.865 435.683 58.84 435.659 58.803 435.624 C 58.785 435.605 58.778 435.603 58.769 435.607 C 58.769 435.607 58.761 435.594 58.756 435.587 C 58.751 435.581 58.741 435.582 58.741 435.582 C 58.673 435.522 58.605 435.461 58.525 435.389 C 58.513 435.378 58.499 435.377 58.499 435.377 C 58.151 435.028 57.803 434.679 57.446 434.319 C 57.438 434.309 57.428 434.308 57.428 434.308 C 57.37 434.236 57.312 434.165 57.239 434.074 C 57.188 434.021 57.153 433.987 57.117 433.952 C 57.117 433.952 57.112 433.964 57.112 433.946 C 57.061 433.87 57.009 433.813 56.957 433.756 C 56.957 433.756 56.953 433.765 56.953 433.749 C 56.926 433.702 56.899 433.671 56.872 433.64 C 56.84 433.593 56.808 433.545 56.763 433.479 C 56.712 433.415 56.674 433.37 56.636 433.325 C 56.636 433.325 56.633 433.33 56.633 433.315 C 56.584 433.239 56.535 433.179 56.487 433.119 C 56.487 433.119 56.479 433.117 56.481 433.104 C 56.438 433.03 56.394 432.969 56.35 432.907 C 56.295 432.815 56.239 432.722 56.171 432.61 C 56.144 432.574 56.13 432.556 56.116 432.539 C 56.116 432.539 56.117 432.537 56.114 432.524 C 56.033 432.387 55.955 432.264 55.878 432.141 C 55.87 432.12 55.862 432.099 55.843 432.057 C 55.797 431.975 55.761 431.915 55.724 431.854 C 55.718 431.835 55.712 431.816 55.699 431.783 C 55.693 431.768 55.679 431.76 55.679 431.76 C 55.674 431.746 55.67 431.732 55.655 431.698 C 55.631 431.66 55.617 431.641 55.603 431.622 C 55.528 431.459 55.453 431.296 55.369 431.11 C 55.336 431.041 55.312 430.996 55.288 430.952 C 55.267 430.892 55.246 430.833 55.215 430.749 C 55.167 430.638 55.13 430.55 55.092 430.463 C 55.092 430.463 55.093 430.448 55.089 430.43 C 55.072 430.384 55.058 430.355 55.044 430.326 C 55.044 430.318 55.043 430.31 55.038 430.278 C 55.008 430.197 54.984 430.14 54.959 430.083 C 54.921 429.959 54.882 429.836 54.838 429.689 C 54.823 429.646 54.813 429.627 54.803 429.608 C 54.772 429.483 54.74 429.359 54.701 429.208 C 54.679 429.138 54.664 429.095 54.649 429.052 C 54.632 428.965 54.615 428.879 54.594 428.771 C 54.584 428.733 54.577 428.717 54.57 428.701 C 54.567 428.669 54.564 428.637 54.557 428.581 C 54.544 428.537 54.536 428.517 54.527 428.498 C 54.526 428.48 54.524 428.461 54.52 428.42 C 54.508 428.378 54.499 428.358 54.49 428.339 C 54.486 428.295 54.482 428.252 54.475 428.185 C 54.463 428.141 54.456 428.121 54.448 428.102 C 54.436 428.006 54.425 427.911 54.411 427.784 C 54.401 427.724 54.393 427.694 54.39 427.654 C 54.387 427.625 54.379 427.605 54.374 427.57 C 54.37 427.512 54.363 427.47 54.36 427.413 C 54.352 427.342 54.341 427.286 54.331 427.23 C 54.327 427.148 54.323 427.066 54.318 426.953 C 54.308 426.854 54.299 426.784 54.291 426.715 C 54.289 426.423 54.288 426.132 54.287 425.806 C 54.286 425.716 54.284 425.66 54.282 425.604 C 54.287 425.51 54.292 425.416 54.302 425.292 C 54.307 425.191 54.308 425.12 54.309 425.05 C 54.318 424.969 54.327 424.888 54.342 424.779 C 54.347 424.707 54.347 424.664 54.354 424.605 C 54.365 424.531 54.368 424.473 54.378 424.407 C 54.383 424.378 54.382 424.358 54.388 424.324 C 54.398 424.28 54.4 424.249 54.402 424.218 C 54.406 424.199 54.41 424.181 54.418 424.146 C 54.421 424.13 54.424 424.119 54.424 424.119 L 54.415 424.114 C 54.427 424.055 54.439 423.996 54.456 423.91 C 54.461 423.863 54.461 423.842 54.46 423.822 C 54.475 423.755 54.49 423.688 54.513 423.592 C 54.533 423.493 54.543 423.422 54.554 423.352 C 54.554 423.352 54.556 423.341 54.562 423.331 C 54.573 423.29 54.578 423.259 54.583 423.227 C 54.605 423.145 54.627 423.063 54.655 422.957 C 54.664 422.913 54.666 422.892 54.676 422.858 C 54.687 422.819 54.691 422.791 54.695 422.763 C 54.707 422.729 54.72 422.696 54.74 422.637 C 54.777 422.518 54.805 422.424 54.835 422.33 C 54.913 422.088 54.992 421.845 55.071 421.603 C 55.089 421.56 55.108 421.517 55.137 421.451 C 55.274 421.13 55.401 420.834 55.528 420.537 C 55.553 420.492 55.578 420.448 55.615 420.383 C 55.647 420.315 55.666 420.268 55.685 420.221 C 55.685 420.221 55.684 420.217 55.695 420.212 C 55.975 419.765 56.239 419.32 56.515 418.882 C 56.647 418.673 56.802 418.477 56.947 418.276 C 56.947 418.276 56.948 418.276 56.96 418.269 C 57.428 417.702 57.912 417.167 58.461 416.693 C 58.644 416.535 58.827 416.377 59.01 416.218 C 59.01 416.218 59.008 416.216 59.022 416.215 C 59.084 416.178 59.133 416.143 59.18 416.107 C 59.853 415.594 60.572 415.155 61.333 414.784 C 62.523 414.203 63.78 413.852 65.088 413.662 C 66.292 413.486 67.495 413.504 68.693 413.693 C 69.739 413.858 70.75 414.151 71.722 414.578 C 73.338 415.287 74.754 416.277 75.944 417.585 C 76.107 417.765 76.271 417.945 76.435 418.125 C 76.479 418.186 76.523 418.246 76.581 418.326 C 76.741 418.534 76.886 418.722 77.032 418.911 C 77.032 418.911 77.033 418.91 77.035 418.923 C 77.073 418.985 77.11 419.034 77.146 419.083 C 77.155 419.101 77.163 419.12 77.183 419.157 C 77.245 419.246 77.296 419.318 77.346 419.39 C 77.346 419.39 77.348 419.385 77.348 419.399 C 77.38 419.461 77.412 419.508 77.444 419.555 C 77.468 419.6 77.491 419.646 77.528 419.713 C 77.727 420.081 77.912 420.427 78.098 420.773 C 78.121 420.832 78.144 420.89 78.177 420.972 C 78.209 421.04 78.233 421.085 78.257 421.129 C 78.273 421.177 78.29 421.225 78.317 421.297 C 78.357 421.389 78.387 421.457 78.417 421.525 C 78.44 421.596 78.463 421.668 78.494 421.764 C 78.526 421.847 78.55 421.904 78.573 421.962 C 78.585 422.006 78.597 422.051 78.615 422.122 C 78.66 422.257 78.698 422.367 78.735 422.476 C 78.758 422.572 78.782 422.669 78.811 422.792 C 78.83 422.849 78.843 422.88 78.855 422.911 C 78.89 423.074 78.924 423.236 78.965 423.427 C 78.985 423.512 79 423.568 79.014 423.624 C 79.032 423.746 79.049 423.868 79.07 424.015 C 79.081 424.059 79.088 424.079 79.095 424.098 C 79.099 424.154 79.102 424.21 79.108 424.297 C 79.132 424.449 79.153 424.571 79.174 424.693 C 79.173 424.711 79.173 424.729 79.174 424.777 C 79.189 424.914 79.201 425.021 79.214 425.129 C 79.215 425.184 79.215 425.239 79.216 425.329 C 79.224 425.721 79.23 426.079 79.237 426.437 C 79.228 426.57 79.218 426.704 79.204 426.868 C 79.193 426.996 79.188 427.093 79.182 427.19 C 79.178 427.219 79.173 427.249 79.163 427.307 C 79.143 427.458 79.129 427.582 79.115 427.705 C 79.107 427.76 79.098 427.815 79.085 427.894 C 79.079 427.94 79.079 427.961 79.079 427.982 C 79.07 428.024 79.061 428.066 79.044 428.137 C 79.01 428.316 78.982 428.466 78.955 428.617 C 78.948 428.646 78.94 428.675 78.925 428.731 C 78.858 428.987 78.803 429.218 78.74 429.446 C 78.315 430.962 77.605 432.334 76.653 433.584 C 76.522 433.756 76.393 433.93 76.264 434.103 C 76.264 434.103 76.265 434.106 76.251 434.11 C 75.962 434.402 75.687 434.69 75.413 434.979 C 75.377 435.016 75.348 435.059 75.316 435.099 C 75.316 435.099 75.325 435.105 75.308 435.105 C 75.195 435.198 75.099 435.29 75.004 435.382 C 75.004 435.382 75.01 435.387 74.995 435.387 C 74.29 435.96 73.576 436.497 72.763 436.92 C 72.729 436.803 72.703 436.71 72.676 436.617 C 72.664 436.548 72.653 436.478 72.637 436.379 C 72.606 436.241 72.579 436.133 72.553 436.025 C 72.551 435.994 72.549 435.964 72.544 435.909 C 72.531 435.865 72.523 435.846 72.514 435.826 C 72.512 435.796 72.509 435.765 72.503 435.711 C 72.491 435.667 72.483 435.648 72.474 435.628 C 72.474 435.61 72.474 435.592 72.471 435.546 C 72.43 435.356 72.392 435.196 72.354 435.035 C 72.35 435.001 72.347 434.968 72.339 434.914 C 72.333 434.884 72.328 434.878 72.319 434.875 C 72.318 434.857 72.318 434.839 72.315 434.793 C 72.301 434.701 72.297 434.634 72.276 434.573 C 72.239 434.463 72.265 434.388 72.365 434.325 C 72.475 434.256 72.581 434.178 72.682 434.095 C 72.925 433.897 73.163 433.695 73.403 433.494 C 73.403 433.494 73.419 433.488 73.432 433.48 C 73.454 433.467 73.458 433.459 73.457 433.447 C 73.483 433.428 73.509 433.409 73.553 433.375 C 73.631 433.298 73.69 433.236 73.75 433.173 C 73.763 433.172 73.774 433.166 73.796 433.14 C 73.98 432.951 74.157 432.784 74.314 432.6 C 74.504 432.376 74.677 432.138 74.857 431.906 C 74.857 431.906 74.855 431.903 74.867 431.899 C 75.079 431.579 75.279 431.264 75.478 430.949 C 75.478 430.949 75.486 430.945 75.49 430.941 C 75.495 430.937 75.492 430.925 75.492 430.925 C 75.51 430.896 75.528 430.867 75.56 430.815 C 75.598 430.739 75.621 430.687 75.645 430.636 C 75.645 430.636 75.654 430.627 75.664 430.611 C 75.718 430.502 75.761 430.409 75.811 430.311 C 75.825 430.298 75.827 430.288 75.822 430.277 C 75.844 430.235 75.865 430.193 75.898 430.13 C 75.912 430.095 75.916 430.081 75.926 430.065 C 75.939 430.055 75.938 430.047 75.93 430.041 C 75.967 429.959 76.004 429.876 76.052 429.77 C 76.134 429.541 76.205 429.336 76.276 429.131 C 76.281 429.118 76.286 429.105 76.3 429.071 C 76.346 428.918 76.382 428.786 76.419 428.654 C 76.426 428.637 76.432 428.62 76.447 428.579 C 76.469 428.482 76.483 428.409 76.497 428.337 C 76.503 428.32 76.509 428.302 76.522 428.26 C 76.544 428.15 76.559 428.065 76.573 427.98 C 76.58 427.963 76.586 427.946 76.6 427.905 C 76.608 427.848 76.61 427.815 76.611 427.782 C 76.618 427.753 76.626 427.723 76.64 427.666 C 76.651 427.581 76.655 427.524 76.66 427.466 C 76.664 427.448 76.669 427.43 76.68 427.387 C 76.69 427.304 76.693 427.246 76.696 427.188 C 76.703 427.146 76.709 427.104 76.722 427.033 C 76.732 426.934 76.735 426.863 76.739 426.792 C 76.744 426.762 76.749 426.732 76.759 426.674 C 76.769 426.402 76.777 426.16 76.776 425.917 C 76.776 425.813 76.759 425.71 76.749 425.607 C 76.749 425.551 76.749 425.495 76.748 425.407 C 76.735 425.28 76.723 425.186 76.71 425.092 C 76.709 425.049 76.708 425.006 76.704 424.934 C 76.693 424.862 76.683 424.818 76.673 424.774 C 76.67 424.718 76.667 424.662 76.662 424.579 C 76.651 424.521 76.641 424.489 76.632 424.458 C 76.63 424.425 76.629 424.393 76.625 424.335 C 76.613 424.281 76.604 424.253 76.595 424.225 C 76.594 424.212 76.594 424.199 76.589 424.161 C 76.565 424.058 76.546 423.978 76.527 423.899 C 76.503 423.773 76.478 423.647 76.451 423.504 C 76.447 423.487 76.436 423.478 76.436 423.478 C 76.434 423.457 76.432 423.436 76.426 423.391 C 76.412 423.347 76.401 423.328 76.391 423.31 C 76.388 423.288 76.385 423.266 76.376 423.227 C 76.371 423.201 76.366 423.197 76.357 423.196 C 76.337 423.122 76.317 423.048 76.29 422.947 C 76.243 422.811 76.203 422.702 76.162 422.594 C 76.145 422.533 76.127 422.473 76.1 422.389 C 76.07 422.321 76.05 422.275 76.031 422.229 C 76.031 422.229 76.029 422.212 76.02 422.192 C 75.998 422.147 75.984 422.123 75.97 422.098 C 75.97 422.098 75.973 422.087 75.969 422.068 C 75.892 421.888 75.826 421.724 75.745 421.567 C 75.641 421.364 75.524 421.167 75.413 420.968 C 75.39 420.922 75.366 420.876 75.331 420.808 C 75.112 420.488 74.906 420.191 74.699 419.893 C 74.699 419.881 74.695 419.871 74.675 419.846 C 74.278 419.336 73.85 418.884 73.379 418.474 C 73.231 418.346 73.071 418.232 72.917 418.112 C 72.917 418.112 72.913 418.116 72.91 418.102 C 72.872 418.058 72.841 418.024 72.804 417.997 C 72.21 417.565 71.587 417.181 70.912 416.89 C 70.777 416.832 70.603 416.857 70.447 416.854 C 70.418 416.854 70.383 416.896 70.36 416.925 C 70.156 417.176 69.953 417.428 69.753 417.681 C 69.303 418.251 68.855 418.821 68.408 419.392 C 68.342 419.476 68.273 419.513 68.157 419.509 C 67.881 419.5 67.604 419.514 67.311 419.514 C 67.212 419.513 67.131 419.516 67.035 419.516 C 66.991 419.514 66.961 419.517 66.914 419.515 C 66.683 419.513 66.47 419.516 66.239 419.515 C 65.931 419.511 65.641 419.509 65.351 419.513 C 65.25 419.515 65.173 419.486 65.112 419.404 C 65.029 419.294 64.939 419.188 64.853 419.081 C 64.68 418.865 64.507 418.65 64.334 418.428 C 64.329 418.413 64.323 418.409 64.313 418.41 Z" style="stroke-width: 1; fill: rgb(231, 0, 255);"/>
  <path d="M 71.094 434.755 C 71.123 434.916 71.153 435.078 71.186 435.267 C 71.199 435.325 71.208 435.356 71.217 435.387 C 71.232 435.471 71.246 435.554 71.264 435.662 C 71.277 435.706 71.285 435.725 71.293 435.745 C 71.3 435.793 71.307 435.841 71.318 435.906 C 71.321 435.921 71.331 435.931 71.331 435.931 C 71.334 435.964 71.338 435.998 71.345 436.057 C 71.356 436.102 71.364 436.121 71.372 436.141 C 71.375 436.172 71.378 436.202 71.385 436.257 C 71.396 436.3 71.404 436.319 71.412 436.339 C 71.419 436.387 71.425 436.434 71.435 436.5 C 71.438 436.517 71.45 436.527 71.45 436.527 C 71.451 436.549 71.453 436.57 71.459 436.618 C 71.472 436.675 71.483 436.705 71.493 436.735 C 71.499 436.783 71.505 436.831 71.514 436.896 C 71.517 436.913 71.529 436.923 71.529 436.923 C 71.53 436.943 71.531 436.963 71.536 437.01 C 71.55 437.068 71.561 437.1 71.572 437.131 C 71.578 437.18 71.585 437.228 71.595 437.292 C 71.599 437.308 71.608 437.317 71.608 437.317 C 71.627 437.417 71.645 437.517 71.668 437.645 C 71.691 437.744 71.71 437.814 71.728 437.884 C 71.731 437.915 71.734 437.945 71.74 437.999 C 71.751 438.043 71.759 438.063 71.767 438.082 C 71.79 438.205 71.813 438.328 71.84 438.481 C 71.866 438.607 71.888 438.704 71.91 438.801 C 71.937 438.965 71.964 439.129 71.991 439.313 C 71.991 439.334 71.995 439.342 71.995 439.342 C 71.988 439.349 71.982 439.357 71.957 439.382 C 71.906 439.436 71.873 439.472 71.841 439.507 C 71.841 439.507 71.843 439.509 71.83 439.513 C 71.718 439.619 71.62 439.722 71.522 439.824 C 71.508 439.825 71.498 439.831 71.475 439.855 C 71.428 439.906 71.396 439.944 71.364 439.982 C 71.364 439.982 71.367 439.985 71.354 439.987 C 71.296 440.04 71.251 440.091 71.206 440.141 C 71.206 440.141 71.209 440.143 71.196 440.146 C 70.978 440.358 70.775 440.567 70.571 440.775 C 70.557 440.776 70.547 440.783 70.525 440.808 C 70.478 440.858 70.446 440.896 70.414 440.933 C 70.414 440.933 70.417 440.935 70.403 440.939 C 70.273 441.057 70.155 441.17 70.041 441.287 C 69.807 441.524 69.576 441.764 69.343 442.002 C 69.343 442.002 69.347 442.004 69.333 442.007 C 69.101 442.231 68.883 442.453 68.665 442.675 C 68.652 442.676 68.643 442.682 68.621 442.706 C 68.52 442.809 68.435 442.899 68.35 442.99 C 68.35 442.99 68.355 442.993 68.341 442.994 C 68.281 443.046 68.236 443.097 68.191 443.148 C 68.191 443.148 68.197 443.152 68.182 443.153 C 68.121 443.205 68.074 443.256 68.028 443.308 C 67.756 443.573 67.484 443.838 67.195 444.12 C 67.156 444.164 67.134 444.191 67.112 444.217 C 67.102 444.218 67.093 444.223 67.073 444.245 C 66.973 444.351 66.888 444.444 66.803 444.537 C 66.787 444.54 66.771 444.543 66.736 444.535 C 66.658 444.463 66.599 444.403 66.555 444.342 C 66.692 444.351 66.734 444.291 66.734 444.175 C 66.736 443.974 66.707 443.774 66.728 443.571 C 66.753 443.332 66.744 443.089 66.751 442.849 C 66.754 442.734 66.765 442.619 66.766 442.504 C 66.767 442.383 66.762 442.261 66.758 442.139 C 66.752 441.965 66.737 441.792 66.74 441.618 C 66.743 441.422 66.766 441.226 66.771 441.029 C 66.776 440.865 66.769 440.7 66.764 440.535 C 66.756 440.268 66.739 440.002 66.738 439.735 C 66.737 439.578 66.768 439.422 66.771 439.265 C 66.776 438.915 66.768 438.565 66.774 438.216 C 66.778 438.013 66.799 437.81 66.81 437.607 C 66.813 437.542 66.81 437.475 66.804 437.41 C 66.796 437.306 66.774 437.202 66.774 437.098 C 66.772 434.716 66.772 432.334 66.772 429.951 C 66.772 429.886 66.788 429.814 66.767 429.755 C 66.664 429.458 66.789 429.158 66.747 428.858 C 66.721 428.679 66.791 428.489 66.736 428.303 C 66.726 428.267 66.736 428.225 66.739 428.185 C 66.749 428.068 66.772 427.951 66.771 427.834 C 66.76 426.295 66.799 424.756 66.736 423.217 C 66.698 422.296 66.778 421.372 66.695 420.451 C 66.679 420.275 66.673 420.258 66.499 420.212 C 66.454 420.2 66.41 420.184 66.365 420.177 C 66.283 420.165 66.256 420.114 66.276 420.034 C 66.875 420.029 67.456 420.029 68.041 420.034 C 68.057 420.04 68.069 420.039 68.088 420.041 C 68.094 420.043 68.108 420.043 68.108 420.043 C 68.118 420.105 68.128 420.167 68.142 420.252 C 68.153 420.295 68.159 420.314 68.166 420.334 C 68.17 420.365 68.173 420.396 68.18 420.45 C 68.191 420.493 68.198 420.512 68.206 420.532 C 68.235 420.681 68.264 420.83 68.297 421.004 C 68.308 421.048 68.316 421.067 68.324 421.087 C 68.327 421.118 68.33 421.148 68.337 421.203 C 68.349 421.246 68.357 421.265 68.364 421.284 C 68.381 421.381 68.398 421.477 68.419 421.598 C 68.43 421.642 68.438 421.661 68.445 421.68 C 68.446 421.699 68.448 421.718 68.453 421.759 C 68.464 421.801 68.472 421.821 68.48 421.84 C 68.48 421.858 68.481 421.876 68.484 421.919 C 68.497 421.976 68.508 422.007 68.518 422.039 C 68.562 422.279 68.607 422.52 68.655 422.786 C 68.667 422.83 68.674 422.85 68.681 422.869 C 68.682 422.888 68.684 422.906 68.688 422.947 C 68.7 422.99 68.709 423.009 68.718 423.029 C 68.734 423.125 68.751 423.221 68.771 423.341 C 68.783 423.385 68.79 423.405 68.798 423.424 C 68.801 423.455 68.803 423.486 68.809 423.54 C 68.82 423.584 68.828 423.603 68.836 423.623 C 68.837 423.641 68.838 423.659 68.842 423.702 C 68.856 423.758 68.867 423.789 68.878 423.82 C 68.885 423.869 68.892 423.918 68.903 423.981 C 68.908 423.995 68.915 424.003 68.915 424.003 C 68.919 424.038 68.923 424.073 68.932 424.132 C 68.943 424.177 68.951 424.197 68.958 424.216 C 68.961 424.247 68.965 424.278 68.972 424.332 C 68.983 424.375 68.991 424.395 68.999 424.414 C 69 424.433 69.002 424.451 69.007 424.492 C 69.018 424.534 69.026 424.554 69.033 424.574 C 69.038 424.617 69.043 424.66 69.052 424.728 C 69.064 424.771 69.071 424.79 69.079 424.81 C 69.097 424.908 69.116 425.006 69.14 425.132 C 69.162 425.229 69.179 425.297 69.196 425.365 C 69.215 425.48 69.235 425.595 69.259 425.725 C 69.262 425.739 69.271 425.748 69.271 425.748 C 69.275 425.782 69.279 425.816 69.287 425.88 C 69.312 425.992 69.332 426.075 69.352 426.158 C 69.369 426.254 69.385 426.35 69.406 426.471 C 69.417 426.515 69.425 426.534 69.433 426.554 C 69.436 426.585 69.439 426.615 69.447 426.674 C 69.472 426.784 69.493 426.867 69.513 426.949 C 69.516 426.98 69.519 427.011 69.526 427.066 C 69.537 427.109 69.544 427.128 69.552 427.148 C 69.555 427.179 69.558 427.21 69.566 427.264 C 69.577 427.307 69.585 427.326 69.592 427.346 C 69.596 427.376 69.599 427.407 69.607 427.464 C 69.63 427.562 69.648 427.633 69.667 427.704 C 69.669 427.734 69.672 427.764 69.678 427.82 C 69.691 427.877 69.702 427.908 69.712 427.939 C 69.715 427.971 69.719 428.002 69.726 428.056 C 69.737 428.099 69.744 428.118 69.751 428.138 C 69.763 428.208 69.775 428.278 69.79 428.375 C 69.804 428.433 69.815 428.465 69.825 428.496 C 69.83 428.539 69.835 428.582 69.844 428.65 C 69.856 428.693 69.863 428.713 69.87 428.732 C 69.875 428.766 69.879 428.801 69.887 428.854 C 69.891 428.881 69.895 428.885 69.904 428.886 C 69.916 428.958 69.929 429.029 69.945 429.129 C 69.961 429.201 69.974 429.244 69.986 429.287 C 70.003 429.384 70.019 429.48 70.039 429.6 C 70.051 429.644 70.058 429.664 70.066 429.683 C 70.069 429.714 70.072 429.745 70.079 429.803 C 70.104 429.914 70.124 429.997 70.145 430.08 C 70.151 430.127 70.158 430.175 70.167 430.24 C 70.171 430.258 70.182 430.269 70.182 430.269 C 70.189 430.319 70.196 430.369 70.206 430.437 C 70.21 430.456 70.221 430.468 70.221 430.468 C 70.231 430.528 70.242 430.588 70.256 430.676 C 70.276 430.76 70.291 430.816 70.305 430.871 C 70.309 430.902 70.312 430.933 70.319 430.988 C 70.331 431.03 70.338 431.05 70.346 431.069 C 70.371 431.205 70.396 431.341 70.424 431.504 C 70.438 431.563 70.449 431.594 70.459 431.625 C 70.464 431.669 70.468 431.712 70.477 431.779 C 70.489 431.823 70.496 431.842 70.504 431.862 C 70.529 431.997 70.554 432.133 70.583 432.296 C 70.597 432.355 70.608 432.386 70.619 432.418 C 70.639 432.532 70.66 432.647 70.684 432.776 C 70.688 432.791 70.697 432.8 70.697 432.8 C 70.728 432.966 70.759 433.133 70.793 433.324 C 70.805 433.368 70.812 433.387 70.82 433.407 C 70.824 433.438 70.827 433.469 70.835 433.523 C 70.846 433.566 70.853 433.585 70.86 433.605 C 70.863 433.635 70.866 433.666 70.874 433.724 C 70.897 433.822 70.916 433.892 70.936 433.962 C 70.939 433.993 70.942 434.023 70.948 434.078 C 70.96 434.121 70.968 434.141 70.976 434.16 C 71.002 434.309 71.028 434.457 71.058 434.634 C 71.072 434.692 71.083 434.723 71.094 434.755 Z" style="stroke-width: 1; fill: rgb(231, 0, 255);"/>
  <path d="M 66.258 420.039 C 66.256 420.114 66.283 420.165 66.366 420.178 C 66.411 420.184 66.454 420.2 66.499 420.212 C 66.673 420.258 66.679 420.275 66.695 420.451 C 66.778 421.372 66.698 422.296 66.736 423.217 C 66.799 424.756 66.76 426.295 66.771 427.834 C 66.772 427.951 66.75 428.068 66.739 428.186 C 66.736 428.225 66.726 428.267 66.736 428.303 C 66.791 428.489 66.721 428.679 66.747 428.858 C 66.79 429.158 66.665 429.458 66.767 429.755 C 66.788 429.814 66.772 429.886 66.773 429.952 C 66.773 432.334 66.772 434.716 66.774 437.098 C 66.774 437.202 66.796 437.306 66.805 437.41 C 66.81 437.475 66.813 437.542 66.81 437.607 C 66.799 437.81 66.778 438.013 66.774 438.216 C 66.768 438.565 66.776 438.915 66.771 439.265 C 66.769 439.422 66.737 439.578 66.738 439.735 C 66.739 440.002 66.756 440.268 66.765 440.535 C 66.77 440.7 66.776 440.865 66.771 441.029 C 66.766 441.226 66.743 441.422 66.74 441.618 C 66.738 441.792 66.753 441.966 66.758 442.139 C 66.763 442.261 66.767 442.383 66.766 442.505 C 66.765 442.619 66.754 442.734 66.751 442.849 C 66.744 443.089 66.753 443.332 66.729 443.571 C 66.707 443.774 66.736 443.974 66.735 444.176 C 66.734 444.291 66.692 444.351 66.547 444.334 C 66.502 444.313 66.482 444.3 66.462 444.287 C 66.461 444.276 66.456 444.267 66.434 444.247 C 66.382 444.2 66.342 444.166 66.302 444.133 C 66.192 444.021 66.082 443.908 65.956 443.779 C 65.915 443.741 65.89 443.721 65.865 443.7 C 65.795 443.627 65.725 443.553 65.639 443.461 C 65.585 443.411 65.546 443.377 65.508 443.344 C 65.507 443.332 65.501 443.322 65.477 443.3 C 65.373 443.199 65.282 443.114 65.191 443.028 C 65.173 443.006 65.154 442.984 65.122 442.946 C 65.083 442.91 65.058 442.89 65.032 442.87 C 65.031 442.857 65.025 442.847 65.002 442.826 C 64.964 442.791 64.939 442.771 64.914 442.751 C 64.869 442.703 64.825 442.655 64.766 442.59 C 64.712 442.54 64.674 442.508 64.636 442.475 C 64.578 442.414 64.52 442.353 64.445 442.274 C 64.366 442.198 64.303 442.139 64.24 442.079 C 63.906 441.741 63.572 441.402 63.221 441.045 C 63.128 440.954 63.05 440.882 62.973 440.81 C 62.94 440.775 62.908 440.74 62.86 440.69 C 62.813 440.65 62.782 440.626 62.751 440.602 C 62.751 440.602 62.747 440.603 62.744 440.59 C 62.712 440.551 62.683 440.525 62.653 440.499 C 62.651 440.485 62.644 440.474 62.619 440.452 C 62.568 440.404 62.532 440.372 62.495 440.34 C 62.438 440.277 62.38 440.215 62.306 440.136 C 62.253 440.087 62.216 440.055 62.178 440.022 C 62.177 440.009 62.17 439.998 62.144 439.976 C 62.094 439.928 62.057 439.896 62.02 439.864 C 62.018 439.85 62.011 439.839 61.986 439.817 C 61.935 439.77 61.898 439.738 61.861 439.706 C 61.803 439.644 61.745 439.582 61.669 439.501 C 61.538 439.397 61.509 439.285 61.545 439.15 C 61.554 439.113 61.551 439.073 61.553 439.034 C 61.563 438.992 61.574 438.95 61.59 438.882 C 61.601 438.822 61.604 438.789 61.608 438.756 C 61.613 438.739 61.618 438.722 61.63 438.679 C 61.664 438.502 61.69 438.352 61.716 438.202 C 61.725 438.172 61.733 438.143 61.748 438.09 C 61.755 438.045 61.756 438.024 61.758 438.003 C 61.766 437.974 61.774 437.945 61.789 437.889 C 61.822 437.724 61.847 437.587 61.872 437.449 C 61.881 437.42 61.889 437.39 61.904 437.337 C 61.909 437.292 61.909 437.272 61.909 437.251 C 61.919 437.221 61.928 437.192 61.945 437.135 C 61.968 437.01 61.985 436.912 62.002 436.815 C 62.007 436.797 62.012 436.78 62.024 436.739 C 62.034 436.683 62.037 436.65 62.04 436.617 C 62.047 436.588 62.054 436.558 62.067 436.506 C 62.076 436.461 62.078 436.44 62.08 436.419 C 62.085 436.401 62.091 436.384 62.103 436.34 C 62.141 436.151 62.172 435.988 62.203 435.825 C 62.208 435.807 62.213 435.79 62.224 435.751 C 62.231 435.708 62.233 435.687 62.235 435.666 C 62.243 435.637 62.251 435.608 62.266 435.551 C 62.301 435.374 62.329 435.223 62.357 435.072 C 62.362 435.055 62.367 435.037 62.379 434.996 C 62.389 434.939 62.393 434.907 62.397 434.874 C 62.402 434.856 62.408 434.839 62.42 434.795 C 62.457 434.593 62.488 434.416 62.518 434.24 C 62.523 434.223 62.528 434.205 62.541 434.162 C 62.59 433.92 62.633 433.704 62.675 433.488 C 62.68 433.47 62.686 433.453 62.698 433.409 C 62.76 433.101 62.814 432.819 62.869 432.537 C 62.877 432.507 62.884 432.478 62.899 432.422 C 62.92 432.338 62.936 432.281 62.947 432.224 C 63.012 431.879 63.075 431.535 63.139 431.19 C 63.148 431.16 63.157 431.131 63.173 431.073 C 63.215 430.856 63.249 430.666 63.284 430.477 C 63.284 430.477 63.287 430.475 63.291 430.472 C 63.295 430.468 63.298 430.458 63.298 430.458 L 63.289 430.452 C 63.301 430.406 63.313 430.36 63.331 430.288 C 63.338 430.241 63.339 430.22 63.341 430.199 C 63.349 430.17 63.357 430.141 63.373 430.084 C 63.405 429.919 63.43 429.782 63.455 429.645 C 63.465 429.603 63.476 429.562 63.493 429.495 C 63.502 429.45 63.504 429.428 63.506 429.407 C 63.513 429.378 63.52 429.349 63.535 429.293 C 63.583 429.049 63.623 428.832 63.664 428.615 C 63.671 428.586 63.678 428.556 63.692 428.5 C 63.728 428.322 63.756 428.171 63.784 428.021 C 63.79 427.991 63.797 427.962 63.81 427.909 C 63.819 427.865 63.821 427.844 63.823 427.823 C 63.829 427.805 63.834 427.788 63.846 427.744 C 63.881 427.568 63.909 427.418 63.936 427.268 C 63.944 427.239 63.952 427.209 63.966 427.156 C 63.973 427.112 63.975 427.091 63.976 427.07 C 63.984 427.041 63.993 427.011 64.008 426.955 C 64.043 426.777 64.071 426.626 64.099 426.476 C 64.106 426.446 64.112 426.417 64.127 426.36 C 64.172 426.129 64.21 425.926 64.248 425.723 C 64.257 425.694 64.266 425.664 64.28 425.606 C 64.33 425.348 64.374 425.12 64.419 424.891 C 64.424 424.874 64.428 424.856 64.439 424.816 C 64.445 424.774 64.446 424.753 64.447 424.733 C 64.456 424.703 64.465 424.674 64.48 424.617 C 64.505 424.492 64.523 424.394 64.54 424.297 C 64.545 424.279 64.55 424.262 64.561 424.223 C 64.567 424.18 64.567 424.159 64.567 424.138 C 64.576 424.109 64.584 424.079 64.599 424.025 C 64.61 423.966 64.614 423.934 64.618 423.901 C 64.623 423.883 64.628 423.866 64.641 423.823 C 64.709 423.511 64.77 423.224 64.829 422.937 C 64.852 422.823 64.868 422.708 64.888 422.593 C 64.896 422.564 64.903 422.535 64.918 422.48 C 64.928 422.422 64.931 422.389 64.935 422.356 C 64.94 422.338 64.945 422.321 64.958 422.278 C 64.994 422.089 65.024 421.925 65.053 421.762 C 65.058 421.744 65.063 421.726 65.075 421.683 C 65.123 421.441 65.163 421.225 65.203 421.009 C 65.211 420.979 65.219 420.95 65.235 420.893 C 65.289 420.677 65.335 420.487 65.393 420.29 C 65.514 420.18 65.639 420.126 65.791 420.137 C 65.889 420.143 65.988 420.137 66.086 420.138 C 66.154 420.139 66.178 420.102 66.191 420.035 C 66.222 420.033 66.24 420.036 66.258 420.039 Z" style="stroke-width: 1; fill: rgb(231, 0, 255);"/>
  <text style="fill: rgb(51, 51, 51); font-family: Alata; font-size: 28px; font-weight: 700; white-space: pre; stroke-width: 1;" x="-118.74" y="233.059"><tspan style="font-size: 24px; font-weight: 400; word-spacing: 0px; stroke-width: 1;" x="84.135" y="437.374">Job</tspan><tspan style="letter-spacing: 3px; font-size: 28px; word-spacing: 0px; stroke-width: 1;">Seeker</tspan></text>
</svg>